<?xml version="1.0" encoding="UTF-8"?>
<svg width="32px" height="32px" viewBox="0 0 32 32" version="1.1" xmlns="http://www.w3.org/2000/svg" xmlns:xlink="http://www.w3.org/1999/xlink">
    <title>Phone</title>
    <g id="Symbols" stroke="none" stroke-width="1" fill="none" fill-rule="evenodd">
        <g id="Phone">
            <circle id="Oval" fill="#FFFFFF" cx="16" cy="16" r="16"></circle>
            <g id="local_phone---material" transform="translate(7, 7)" fill="#000000" fill-rule="nonzero">
                <path d="M3.6,7.776 C4.336,9.184 5.272,10.456 6.408,11.592 C7.544,12.728 8.816,13.664 10.224,14.4 L12.432,12.192 C12.56,12.048 12.72,11.952 12.912,11.904 C13.104,11.856 13.288,11.872 13.464,11.952 C14.52,12.32 15.704,12.504 17.016,12.504 C17.288,12.504 17.52,12.6 17.712,12.792 C17.904,12.984 18,13.216 18,13.488 L18,17.016 C18,17.288 17.904,17.52 17.712,17.712 C17.52,17.904 17.288,18 17.016,18 C14.712,18 12.504,17.552 10.392,16.656 C8.36,15.792 6.56,14.576 4.992,13.008 C3.424,11.44 2.208,9.64 1.344,7.608 C0.448,5.496 0,3.288 0,0.984 C0,0.712 0.096,0.48 0.288,0.288 C0.48,0.096 0.712,0 0.984,0 L4.512,0 C4.784,0 5.016,0.096 5.208,0.288 C5.4,0.48 5.496,0.712 5.496,0.984 C5.496,2.296 5.68,3.48 6.048,4.536 C6.096,4.712 6.104,4.896 6.072,5.088 C6.04,5.28 5.952,5.44 5.808,5.568 L3.6,7.776 Z" id="Path"></path>
            </g>
        </g>
    </g>
</svg>