<svg width="22" height="22" viewBox="0 0 22 22" xmlns="http://www.w3.org/2000/svg">
    <path d="M3.26 0 0 3.26l1.224 1.223 1.63-1.63.814.815-1.63 1.63 1.63 1.629 1.63-1.63.814.815-1.63 1.63 1.63 1.629 3.259-3.259L3.26 0zm14.98.502-3.072 3.072 3.258 3.258 3.072-3.072a13.804 13.804 0 0 0-1.483-1.775A13.807 13.807 0 0 0 18.24.502zm-4.702 4.7L1.316 17.426l-.814 4.073 4.073-.814L16.797 8.462l-3.259-3.26zm2.35 7.427-3.259 3.259 1.63 1.63 1.629-1.63.815.815-1.63 1.629 1.63 1.63 1.629-1.63.814.814-1.629 1.63L18.74 22 22 18.74l-6.112-6.11z" fill="#FFF" fill-rule="nonzero"/>
</svg>
