<svg width="17" height="24" viewBox="0 0 17 24" xmlns="http://www.w3.org/2000/svg">
    <path d="M2.497 2.464C4.16.821 6.163 0 8.5 0s4.339.821 6.003 2.464C16.168 4.107 17 6.09 17 8.411c0 1.857-.708 4.089-2.125 6.696-1.417 2.607-2.833 4.75-4.25 6.429L8.5 24c-.248-.25-.558-.598-.93-1.045-.372-.446-1.044-1.312-2.018-2.598a46.205 46.205 0 0 1-2.577-3.75c-.744-1.214-1.426-2.59-2.045-4.125C.31 10.946 0 9.59 0 8.411c0-2.322.832-4.304 2.497-5.947zm4.345 8.679C7.44 11.714 8.158 12 9 12c.842 0 1.553-.295 2.132-.884C11.71 10.526 12 9.821 12 9c0-.821-.29-1.527-.868-2.116C10.552 6.294 9.842 6 9 6c-.842 0-1.553.295-2.132.884A2.913 2.913 0 0 0 6 9c0 .821.28 1.536.842 2.143z" fill="#A5A8A9" fill-rule="nonzero"/>
</svg>
