<svg width="14" height="24" viewBox="0 0 14 24" xmlns="http://www.w3.org/2000/svg">
    <g fill="#FFF" fill-rule="nonzero">
        <path d="M9.562 6.119H8.288a3.273 3.273 0 0 0-2.46-2.745V2.248a.258.258 0 0 0-.257-.26h-.963a.258.258 0 0 0-.256.26v1.126A3.273 3.273 0 0 0 1.89 6.119H.617A.622.622 0 0 0 0 6.746v16.627c0 .346.276.627.617.627h8.945c.34 0 .617-.281.617-.627V6.746a.622.622 0 0 0-.617-.627zM1.234 9.586h7.711v10.947H1.34a.61.61 0 0 0-.105.01V9.586zM5.089 4.54c.948 0 1.742.676 1.945 1.578h-3.89c.204-.902.998-1.578 1.945-1.578zm3.856 2.833v.957H1.234v-.957h7.711zM1.234 22.745v-.967a.61.61 0 0 0 .105.01h7.606v.957H1.234zM7.703 3.346a.62.62 0 0 0 .617-.627.638.638 0 0 0-.18-.443.616.616 0 0 0-.437-.184.615.615 0 0 0-.437.184.64.64 0 0 0 0 .887.619.619 0 0 0 .437.183zM13.383 2.092a.615.615 0 0 0-.436.184.634.634 0 0 0 0 .887.618.618 0 0 0 .436.183.616.616 0 0 0 .436-.183.639.639 0 0 0 0-.887.612.612 0 0 0-.436-.184zM13.383 1.255a.616.616 0 0 0 .436-.183.639.639 0 0 0 0-.888.612.612 0 0 0-.436-.184.615.615 0 0 0-.436.184.636.636 0 0 0 0 .888.618.618 0 0 0 .436.183zM13.383 4.183a.615.615 0 0 0-.436.184.634.634 0 0 0 0 .888.618.618 0 0 0 .436.183.616.616 0 0 0 .436-.183.639.639 0 0 0 0-.888.612.612 0 0 0-.436-.184zM9.562 1.36a.617.617 0 0 0-.437.185.64.64 0 0 0 0 .886.617.617 0 0 0 .437.184c.163 0 .321-.066.436-.184a.635.635 0 0 0 0-.886.615.615 0 0 0-.436-.184zM9.562 2.823a.617.617 0 0 0-.437.184.641.641 0 0 0 0 .887.621.621 0 0 0 .437.184.619.619 0 0 0 .617-.628.638.638 0 0 0-.18-.443.615.615 0 0 0-.437-.184zM11.56 3.286a.615.615 0 0 0-.436.184.639.639 0 0 0 0 .888.619.619 0 0 0 .436.184.621.621 0 0 0 .618-.628.643.643 0 0 0-.18-.444.617.617 0 0 0-.438-.184zM11.56.897a.613.613 0 0 0-.436.184.635.635 0 0 0 0 .887.615.615 0 0 0 .436.184.617.617 0 0 0 .437-.184.639.639 0 0 0 .181-.443.64.64 0 0 0-.18-.444.615.615 0 0 0-.438-.184z"/>
    </g>
</svg>
