<svg width="32" height="32" viewBox="0 0 32 32" fill="none" xmlns="http://www.w3.org/2000/svg">
<g clip-path="url(#clip0_240_26)">
<path d="M24.031 2.156C21.573 0.72 18.896 0 16 0C13.104 0 10.427 0.714 7.969 2.14C5.54431 3.53325 3.53283 5.54507 2.14 7.97C0.714 10.427 0 13.104 0 16C0 18.896 0.714 21.573 2.14 24.031C3.53325 26.4557 5.54507 28.4672 7.97 29.86C10.427 31.286 13.104 32 16 32C18.896 32 21.573 31.286 24.031 29.86C26.4552 28.4669 28.4663 26.4554 29.859 24.031C31.286 21.573 32 18.896 32 16C32 13.104 31.286 10.427 29.86 7.969C28.4693 5.54683 26.457 3.54001 24.031 2.156ZM25.767 25.766C24.5099 27.03 23.0157 28.0335 21.37 28.719C19.675 29.4519 17.8467 29.8264 16 29.819C14.116 29.819 12.326 29.462 10.63 28.75C8.98712 28.0459 7.49449 27.0333 6.233 25.767C4.9693 24.5098 3.96613 23.0156 3.281 21.37C2.54811 19.675 2.17361 17.8467 2.181 16C2.181 14.116 2.538 12.326 3.25 10.63C3.9541 8.98712 4.96672 7.49449 6.233 6.233C7.49019 4.96932 8.98441 3.96616 10.63 3.281C12.325 2.54809 14.1533 2.17358 16 2.181C17.884 2.181 19.674 2.538 21.37 3.25C23.0129 3.9541 24.5055 4.96672 25.767 6.233C27.0307 7.49018 28.0339 8.98439 28.719 10.63C29.4519 12.325 29.8264 14.1533 29.819 16C29.819 17.884 29.462 19.674 28.75 21.37C28.0459 23.0129 27.0333 24.5045 25.767 25.766ZM22.875 14.871H17.125V9.129C17.125 8.816 17.015 8.549 16.797 8.329C16.6938 8.22251 16.5698 8.13836 16.4327 8.08176C16.2956 8.02517 16.1483 7.99734 16 8C15.8545 8.0006 15.7105 8.03008 15.5764 8.08673C15.4424 8.14338 15.3209 8.22606 15.219 8.33C14.989 8.549 14.875 8.816 14.875 9.13V14.87H9.125C8.812 14.87 8.547 14.986 8.328 15.216C8.109 15.446 8 15.707 8 16C8 16.314 8.11 16.58 8.328 16.8C8.547 17.02 8.813 17.13 9.125 17.13H14.875V22.87C14.875 23.184 14.99 23.451 15.219 23.67C15.448 23.89 15.709 24 16 24C16.313 24 16.578 23.89 16.797 23.67C17.016 23.451 17.125 23.184 17.125 22.87V17.13H22.875C23.188 17.13 23.453 17.02 23.672 16.8C23.891 16.58 24 16.314 24 16C24 15.707 23.89 15.446 23.672 15.216C23.5711 15.1054 23.4479 15.0175 23.3105 14.958C23.1731 14.8986 23.0247 14.8689 22.875 14.871Z" fill="white"/>
</g>
<defs>
<clipPath id="clip0_240_26">
<rect width="32" height="32" fill="white"/>
</clipPath>
</defs>
</svg>
