<?xml version="1.0" encoding="UTF-8"?>
<svg width="32px" height="32px" viewBox="0 0 32 32" version="1.1" xmlns="http://www.w3.org/2000/svg" xmlns:xlink="http://www.w3.org/1999/xlink">
    <title>facebook</title>
    <g id="Symbols" stroke="none" stroke-width="1" fill="none" fill-rule="evenodd">
        <g id="facebook" fill="#FFFFFF" fill-rule="nonzero">
            <path d="M32,16.0149096 C31.998933,7.17007392 24.8364897,0 16,0 C7.16351027,0 0,7.17114201 0,16.0170458 C0,23.9796409 5.80421446,30.5846964 13.4073086,31.8247464 L13.4990664,31.8375635 L13.4990664,20.6461387 L9.4361163,20.6461387 L9.4361163,16.0149096 L13.4990664,16.0149096 L13.4990664,12.4880835 C13.4787943,12.3097128 13.4681248,12.1025037 13.4681248,11.8931585 C13.4681248,8.77113765 15.9967991,6.23976938 19.1154975,6.23976938 C19.2659376,6.23976938 19.4153107,6.24617791 19.563617,6.25685879 L19.5444118,6.2557907 C20.8236863,6.27394819 22.0613497,6.38716551 23.2691384,6.58903412 L23.126167,6.56874045 L23.126167,10.5099847 L21.1074953,10.5099847 C21.0157375,10.4971677 20.9101094,10.489691 20.8034142,10.489691 C19.5262737,10.489691 18.4902641,11.5257363 18.4902641,12.8053056 C18.4902641,12.8779355 18.4934649,12.9494974 18.4998666,13.0210593 L18.4987997,13.0114465 L18.4987997,16.0149096 L22.9362497,16.0149096 L22.2267271,20.6461387 L18.4987997,20.6461387 L18.4987997,31.8375635 C26.1947186,30.5836283 31.998933,23.9775048 32,16.0149096 L32,16.0149096 L32,16.0149096 Z" id="Path"></path>
        </g>
    </g>
</svg>