<svg width="18" height="17" viewBox="0 0 18 17" xmlns="http://www.w3.org/2000/svg">
    <path d="M3.929 13.571H0V15h3.929v-1.429zm3.928-1.428H5a.72.72 0 0 0-.714.714v2.857c0 .39.323.715.714.715h2.857a.72.72 0 0 0 .714-.715v-2.857a.72.72 0 0 0-.714-.714zm1.786-4.286H0v1.429h9.643V7.857zM2.5 2.143H0V3.57h2.5V2.143zM17.143 13.57H8.929V15h8.214v-1.429zM6.429.714H3.57a.72.72 0 0 0-.714.715v2.857c0 .39.324.714.714.714H6.43a.72.72 0 0 0 .714-.714V1.429a.72.72 0 0 0-.714-.715zM13.57 6.43h-2.857a.72.72 0 0 0-.714.714V10c0 .39.324.714.714.714h2.857a.72.72 0 0 0 .715-.714V7.143a.72.72 0 0 0-.715-.714zm3.572 1.428h-2.5v1.429h2.5V7.857zm0-5.714H7.5V3.57h9.643V2.143z" fill="#FFF" fill-rule="nonzero"/>
</svg>
