<?xml version="1.0" encoding="UTF-8"?>
<svg width="32px" height="32px" viewBox="0 0 32 32" version="1.1" xmlns="http://www.w3.org/2000/svg" xmlns:xlink="http://www.w3.org/1999/xlink">
    <title>Insta</title>
    <g id="Symbols" stroke="none" stroke-width="1" fill="none" fill-rule="evenodd">
        <g id="Insta">
            <circle id="Oval-Copy" fill="#FFFFFF" cx="16" cy="16" r="16"></circle>
            <g id="instagram---FontAwesome" transform="translate(6.9992, 6.1135)" fill="#000000" fill-rule="nonzero">
                <path d="M12.5722109,9.42934997 C12.5722109,11.1603788 11.1603788,12.5722109 9.42934997,12.5722109 C7.69832112,12.5722109 6.28648908,11.1603788 6.28648908,9.42934997 C6.28648908,7.69832112 7.69832112,6.28648908 9.42934997,6.28648908 C11.1603788,6.28648908 12.5722109,7.69832112 12.5722109,9.42934997 Z M14.2664093,9.42934997 C14.2664093,6.75300749 12.1056924,4.59229063 9.42934997,4.59229063 C6.75300749,4.59229063 4.59229063,6.75300749 4.59229063,9.42934997 C4.59229063,12.1056924 6.75300749,14.2664093 9.42934997,14.2664093 C12.1056924,14.2664093 14.2664093,12.1056924 14.2664093,9.42934997 Z M15.5923037,4.39586183 C15.5923037,3.76974501 15.0889549,3.26639619 14.4628381,3.26639619 C13.8367213,3.26639619 13.3333725,3.76974501 13.3333725,4.39586183 C13.3333725,5.02197864 13.8367213,5.52532746 14.4628381,5.52532746 C15.0889549,5.52532746 15.5923037,5.02197864 15.5923037,4.39586183 Z M9.42934997,1.69496575 C10.8043516,1.69496575 13.7507837,1.58447455 14.9907405,2.07554656 C15.4204285,2.24742176 15.7396253,2.45612737 16.071099,2.78760098 C16.4025726,3.11907459 16.6112782,3.4382714 16.7831534,3.86795941 C17.2742254,5.10791625 17.1637342,8.05434833 17.1637342,9.42934997 C17.1637342,10.8043516 17.2742254,13.7507837 16.7831534,14.9907405 C16.6112782,15.4204285 16.4025726,15.7396253 16.071099,16.071099 C15.7396253,16.4025726 15.4204285,16.6112782 14.9907405,16.7831534 C13.7507837,17.2742254 10.8043516,17.1637342 9.42934997,17.1637342 C8.05434833,17.1637342 5.10791625,17.2742254 3.86795941,16.7831534 C3.4382714,16.6112782 3.11907459,16.4025726 2.78760098,16.071099 C2.45612737,15.7396253 2.24742176,15.4204285 2.07554656,14.9907405 C1.58447455,13.7507837 1.69496575,10.8043516 1.69496575,9.42934997 C1.69496575,8.05434833 1.58447455,5.10791625 2.07554656,3.86795941 C2.24742176,3.4382714 2.45612737,3.11907459 2.78760098,2.78760098 C3.11907459,2.45612737 3.4382714,2.24742176 3.86795941,2.07554656 C5.10791625,1.58447455 8.05434833,1.69496575 9.42934997,1.69496575 Z M18.8579326,9.42934997 C18.8579326,8.12800913 18.8702094,6.83894509 18.7965486,5.53760426 C18.7228878,4.02755781 18.3791374,2.68938658 17.2742254,1.58447455 C16.1693134,0.479562514 14.8311421,0.135812104 13.3210957,0.0621513018 C12.0197548,-0.0115095003 10.7306908,0.000767300022 9.42934997,0.000767300022 C8.12800913,0.000767300022 6.83894509,-0.0115095003 5.53760426,0.0621513018 C4.02755781,0.135812104 2.68938658,0.479562514 1.58447455,1.58447455 C0.479562514,2.68938658 0.135812104,4.02755781 0.0621513018,5.53760426 C-0.0115095003,6.83894509 0.000767300022,8.12800913 0.000767300022,9.42934997 C0.000767300022,10.7306908 -0.0115095003,12.0197548 0.0621513018,13.3210957 C0.135812104,14.8311421 0.479562514,16.1693134 1.58447455,17.2742254 C2.68938658,18.3791374 4.02755781,18.7228878 5.53760426,18.7965486 C6.83894509,18.8702094 8.12800913,18.8579326 9.42934997,18.8579326 C10.7306908,18.8579326 12.0197548,18.8702094 13.3210957,18.7965486 C14.8311421,18.7228878 16.1693134,18.3791374 17.2742254,17.2742254 C18.3791374,16.1693134 18.7228878,14.8311421 18.7965486,13.3210957 C18.8702094,12.0197548 18.8579326,10.7306908 18.8579326,9.42934997 Z" id="Shape"></path>
            </g>
        </g>
    </g>
</svg>