<svg width="24" height="23" viewBox="0 0 24 23" xmlns="http://www.w3.org/2000/svg">
    <g fill="#FFF" fill-rule="nonzero">
        <path d="M11.993 0C5.367 0 0 5.152 0 11.5S5.367 23 11.993 23c7.03 0 1.559-4.34 4.182-6.977 1.14-1.15 2.443-1.334 3.658-1.334.554 0 1.094.046 1.589.046 1.484 0 2.578-.352 2.578-3.22C23.985 5.152 18.618 0 11.993 0zm9.968 12.757c-.075.016-.24.031-.554.031-.21 0-.435 0-.675-.015-.285 0-.585-.016-.914-.016-1.335 0-3.283.2-4.977 1.886-1.754 1.779-1.35 3.987-1.11 5.321.045.276.12.675.135.92-.24.077-.78.2-1.888.2-5.577 0-10.12-4.294-10.12-9.584s4.558-9.583 10.135-9.583c5.576 0 10.118 4.293 10.118 9.583 0 .767-.09 1.135-.15 1.257z"/>
        <path d="M8.844 13.754c-1.544 0-2.788 1.227-2.788 2.745s1.26 2.744 2.788 2.744c1.53 0 2.789-1.226 2.789-2.744 0-1.518-1.26-2.745-2.789-2.745zm0 3.603c-.524 0-.959-.383-.959-.858 0-.476.435-.859.96-.859.524 0 .959.383.959.859 0 .475-.435.858-.96.858zm-.3-7.038c0-1.518-1.259-2.744-2.788-2.744S2.968 8.8 2.968 10.319c0 1.518 1.26 2.745 2.788 2.745 1.53 0 2.789-1.227 2.789-2.745zm-2.788.859c-.524 0-.959-.383-.959-.859 0-.475.435-.858.96-.858.524 0 .959.383.959.858 0 .476-.435.859-.96.859zm5.292-8.111c-1.544 0-2.788 1.226-2.788 2.744 0 1.518 1.26 2.745 2.788 2.745 1.53 0 2.788-1.227 2.788-2.745s-1.259-2.744-2.788-2.744zm0 3.603c-.525 0-.96-.383-.96-.859 0-.475.435-.858.96-.858.525 0 .96.383.96.858 0 .476-.435.859-.96.859zm3.703 2.009c0 1.518 1.259 2.744 2.788 2.744 1.53 0 2.788-1.226 2.788-2.744 0-1.518-1.259-2.745-2.788-2.745s-2.788 1.227-2.788 2.745zm3.747 0c0 .475-.434.858-.959.858-.525 0-.96-.383-.96-.858 0-.476.435-.859.96-.859.525 0 .96.383.96.859z"/>
    </g>
</svg>
