<svg width="24" height="18" viewBox="0 0 24 18" xmlns="http://www.w3.org/2000/svg">
    <path d="m22.577 7.336.82-.065a.435.435 0 0 0 .405-.464l-.1-1.202a.427.427 0 0 0-.154-.293.446.446 0 0 0-.32-.102h-1.831L19.415.856a1.62 1.62 0 0 0-1.58-.85H6.168a1.629 1.629 0 0 0-1.584.85L2.605 5.21H.775a.439.439 0 0 0-.475.395L.202 6.807a.434.434 0 0 0 .403.464l.82.065A7.592 7.592 0 0 0 0 11.788l.185 2.302c.032.44.298.831.7 1.03v1.218C.963 18 1.498 18 2.69 18c1.19 0 1.804 0 1.884-1.662V15.26h14.791v1.076c.078 1.662.612 1.662 1.803 1.662 1.192 0 1.805 0 1.884-1.662V15.12c.417-.194.704-.583.76-1.031L24 11.787a7.592 7.592 0 0 0-1.423-4.451zm-14.82 5.227c-.001.237-.198.43-.441.431H2.979a.446.446 0 0 1-.313-.126.427.427 0 0 1-.129-.305V11.01c0-.115.046-.225.129-.306a.444.444 0 0 1 .313-.126l4.337.345c.243 0 .44.193.44.43v1.209zM3.944 6.492l2.133-4.799h11.846l2.131 4.799H3.945zm17.522 6.07a.436.436 0 0 1-.441.432h-4.337a.437.437 0 0 1-.441-.431v-1.209a.438.438 0 0 1 .44-.43l4.338-.345c.117 0 .23.045.312.126.083.081.13.191.129.306v1.552z" fill="#FFF" fill-rule="nonzero"/>
</svg>
