<svg width="30" height="20" viewBox="0 0 30 20" xmlns="http://www.w3.org/2000/svg">
    <path d="m12.078 15.173 9.38-12.393c.31-.41.885-.532 1.342-.285.412.223.614.682.51 1.118l-.046.144-5.802 14.327c-.63 1.555-2.433 2.318-4.027 1.704a3.14 3.14 0 0 1-.365-.168c-1.5-.811-2.041-2.654-1.21-4.116l.104-.169.114-.162 9.38-12.393-9.38 12.393zM24.912 3.466a15.744 15.744 0 0 1 3.031 3.176c.787 1.095 1.544 2.421 1.98 3.507.226.564-.06 1.2-.638 1.42a1.134 1.134 0 0 1-1.457-.621c-.146-.364-.34-.77-.565-1.187l-3.073 1.73a1.14 1.14 0 0 1-1.536-.401 1.079 1.079 0 0 1 .284-1.415l.127-.083 3.026-1.707-.345-.458A13.52 13.52 0 0 0 24.16 5.73l.57-1.41c.057-.14.1-.283.13-.426l.036-.215.016-.214zM20.97 1.183c-.224.127-.43.288-.61.48l-.171.204-.811 1.072a14.1 14.1 0 0 0-3.252-.688V6.16c0 .606-.504 1.097-1.125 1.097-.569 0-1.04-.413-1.114-.948l-.01-.149V2.227a13.877 13.877 0 0 0-6.883 2.387c-1.223.836-2.29 1.933-3.177 3.224L6.94 9.595c.538.303.722.974.412 1.498-.285.481-.887.672-1.4.468l-.136-.066-3.11-1.75c-.192.389-.37.79-.533 1.2a1.134 1.134 0 0 1-1.456.625 1.088 1.088 0 0 1-.64-1.42c1.209-3.033 3.117-5.618 5.628-7.332C10.34-.348 16.1-.777 20.97 1.183z" fill="#FFF" fill-rule="nonzero"/>
</svg>
