<svg width="24" height="23" viewBox="0 0 24 23" xmlns="http://www.w3.org/2000/svg">
    <path d="M23.294 12.785a.84.84 0 0 0-.228.033l-.866.245-.9-2.247c-.254-.637-1.008-1.154-1.679-1.154h-2.905V7.94c0-.64-.193-1.64-.43-2.232l-.145-.363h.11c.503 0 .912-.42.912-.935v-.524c0-.441-.297-.762-.706-.762a.844.844 0 0 0-.228.032l-.866.245-.9-2.247C14.21.518 13.455 0 12.784 0H4.367c-.67 0-1.424.518-1.679 1.154L1.79 3.398l-.855-.241a.84.84 0 0 0-.228-.033c-.41 0-.707.32-.707.762v.524c0 .516.41.935.912.935h.098l-.145.363C.628 6.299.435 7.3.435 7.94v4.463c0 .516.41.935.913.935h1.191c.503 0 .912-.42.912-.935v-1.115h5.884l-.709 1.772-.855-.242a.84.84 0 0 0-.228-.033c-.41 0-.706.321-.706.763v.524c0 .515.409.935.912.935h.098l-.146.363c-.236.59-.429 1.592-.429 2.231v4.464c0 .515.41.935.912.935h1.192c.502 0 .912-.42.912-.935V20.95h10.249v1.115c0 .515.41.935.912.935h1.191c.503 0 .912-.42.912-.935V17.6c0-.64-.192-1.64-.429-2.231l-.145-.363h.11c.503 0 .912-.42.912-.935v-.524c0-.442-.297-.763-.706-.763zM14.96 7.864v1.272a.37.37 0 0 1-.364.374H12.01a.37.37 0 0 1-.365-.374V7.864a.37.37 0 0 1 .365-.374h2.585c.2 0 .364.168.364.374zM5.481 9.136a.37.37 0 0 1-.365.374H2.532a.37.37 0 0 1-.365-.374V7.864a.37.37 0 0 1 .365-.374h2.584c.2 0 .365.168.365.374v1.272zM2.896 5.53c-.4 0-.605-.312-.452-.693l1.36-3.398c.153-.38.606-.692 1.007-.692h7.53c.4 0 .854.311 1.006.692l1.36 3.398c.153.381-.05.693-.452.693H2.896zm6.384 8.969 1.361-3.399c.152-.38.605-.692 1.007-.692h7.53c.4 0 .854.312 1.006.692l1.36 3.399c.153.38-.05.692-.452.692H9.733c-.401 0-.605-.311-.453-.692zm3.038 4.298a.37.37 0 0 1-.365.375H9.368a.37.37 0 0 1-.365-.375v-1.272a.37.37 0 0 1 .365-.374h2.585c.2 0 .365.169.365.374v1.272zm9.479 0a.37.37 0 0 1-.365.375h-2.584a.37.37 0 0 1-.365-.375v-1.272a.37.37 0 0 1 .365-.374h2.584c.2 0 .365.169.365.374v1.272z" fill="#FFF" fill-rule="nonzero"/>
</svg>
