<svg width="16" height="16" viewBox="0 0 16 16" xmlns="http://www.w3.org/2000/svg">
    <path d="m11.667 9.75-.167.292 4.5 4.541L14.583 16l-4.5-4.542-.291.209c-1.111.694-2.264 1.041-3.459 1.041-1.75 0-3.243-.625-4.479-1.875C.618 9.583 0 8.083 0 6.333S.618 3.09 1.854 1.854C3.09.618 4.584 0 6.334 0c1.75 0 3.242.618 4.479 1.854 1.236 1.236 1.854 2.73 1.854 4.48a6.281 6.281 0 0 1-1 3.416zM9.892 3.131c-.996-.944-2.205-1.417-3.628-1.417-1.422 0-2.632.473-3.627 1.417-.996.944-1.494 2.091-1.494 3.44 0 1.35.498 2.496 1.494 3.44.995.945 2.205 1.418 3.627 1.418 1.423 0 2.632-.473 3.628-1.417 1.024-.972 1.537-2.118 1.537-3.44 0-1.323-.513-2.47-1.537-3.441z" fill="#FFF" fill-rule="nonzero"/>
</svg>
