<svg width="22" height="22" viewBox="0 0 22 22" xmlns="http://www.w3.org/2000/svg">
    <g fill="#FFF" fill-rule="evenodd">
        <path d="M0 2.12a2.12 2.12 0 1 1 2.916 1.967v5.72h6.891v-5.72a2.121 2.121 0 1 1 1.59 0v5.72h3.446c1.022 0 1.709-.002 2.221-.07.49-.066.699-.18.837-.318s.252-.348.318-.837c.068-.512.07-1.199.07-2.22V4.086a2.121 2.121 0 1 1 1.59 0v2.33c0 .952 0 1.747-.084 2.377-.09.666-.287 1.267-.77 1.75-.482.482-1.083.68-1.749.769-.63.085-1.425.085-2.378.085h-3.5v5.72a2.121 2.121 0 1 1-1.59 0v-5.72H2.915v5.72a2.121 2.121 0 1 1-1.59 0V4.087A2.121 2.121 0 0 1 0 2.12z" fill-rule="nonzero"/>
        <path d="M16.169 13.783c0-.44.356-.795.795-.795h2.423c1.459 0 2.613 1.202 2.613 2.65 0 1.144-.72 2.134-1.74 2.5l1.623 2.652a.795.795 0 1 1-1.356.83l-2.04-3.33h-.728v2.915a.795.795 0 0 1-1.59 0v-7.422zm1.59 2.916h1.628c.55 0 1.023-.46 1.023-1.06 0-.602-.474-1.06-1.023-1.06H17.76v2.12z"/>
    </g>
</svg>
