<?xml version="1.0" encoding="UTF-8"?>
<svg width="27px" height="26px" viewBox="0 0 27 26" version="1.1" xmlns="http://www.w3.org/2000/svg" xmlns:xlink="http://www.w3.org/1999/xlink">
    <title>5CE7C53D-FA61-4428-99E4-19BAD4338540</title>
    <g id="Page-1" stroke="none" stroke-width="1" fill="none" fill-rule="evenodd">
        <g id="W-SRP-C-Filters" transform="translate(-1195, -153)" fill="#FFFFFF" fill-rule="nonzero">
            <g id="Modal" transform="translate(200, 130)">
                <g id="M-Header-Modal" transform="translate(1, 1)">
                    <g id="close---anticon" transform="translate(994.9219, 22.0391)">
                        <path d="M14.765625,12.578125 L24.6875,2.6171875 C25,2.33072917 25.15625,1.97265625 25.15625,1.54296875 C25.15625,1.11328125 25.0065104,0.748697917 24.7070312,0.44921875 C24.4075521,0.149739583 24.0429688,0 23.6132812,0 C23.1835938,0 22.8255208,0.15625 22.5390625,0.46875 L12.578125,10.390625 L2.6171875,0.46875 C2.33072917,0.15625 1.97265625,0 1.54296875,0 C1.11328125,0 0.748697917,0.149739583 0.44921875,0.44921875 C0.149739583,0.748697917 0,1.11328125 0,1.54296875 C0,1.97265625 0.15625,2.33072917 0.46875,2.6171875 L10.390625,12.578125 L0.46875,22.5390625 C0.15625,22.8255208 0,23.1835938 0,23.6132812 C0,24.0429688 0.149739583,24.4075521 0.44921875,24.7070312 C0.748697917,25.0065104 1.11328125,25.15625 1.54296875,25.15625 C1.97265625,25.15625 2.33072917,25 2.6171875,24.6875 L12.578125,14.7265625 L22.5390625,24.6875 C22.8255208,25 23.1835938,25.15625 23.6132812,25.15625 C24.0429688,25.15625 24.4075521,25.0065104 24.7070312,24.7070312 C25.0065104,24.4075521 25.15625,24.0429688 25.15625,23.6132812 C25.15625,23.1835938 25,22.8255208 24.6875,22.5390625 L14.765625,12.578125 Z" id="Path"></path>
                    </g>
                </g>
            </g>
        </g>
    </g>
</svg>