<svg width="24" height="25" viewBox="0 0 24 25" xmlns="http://www.w3.org/2000/svg">
    <g fill="#FFF" fill-rule="evenodd">
        <path d="M5.455 0c-.603 0-1.091.487-1.091 1.087v1.087H3.273A3.267 3.267 0 0 0 0 5.434v15.218a3.267 3.267 0 0 0 3.273 3.261h8.837a7.629 7.629 0 0 1-1.557-2.174h-7.28c-.603 0-1.091-.486-1.091-1.087V10.87h17.454v.315c.788.233 1.523.59 2.182 1.048V5.435c0-1.801-1.465-3.261-3.273-3.261h-1.09V1.087c0-.6-.489-1.087-1.091-1.087-.603 0-1.091.487-1.091 1.087v1.087H6.545V1.087C6.545.487 6.057 0 5.455 0zm9.818 5.435V4.348H6.545v1.087c0 .6-.488 1.087-1.09 1.087-.603 0-1.091-.487-1.091-1.087V4.348H3.273c-.603 0-1.091.486-1.091 1.087v3.26h17.454v-3.26c0-.6-.488-1.087-1.09-1.087h-1.091v1.087c0 .6-.489 1.087-1.091 1.087-.603 0-1.091-.487-1.091-1.087z"/>
        <path d="M16.364 16.304c0-.6.488-1.087 1.09-1.087.603 0 1.091.487 1.091 1.087v1.851l.96.957a1.084 1.084 0 0 1 0 1.537 1.094 1.094 0 0 1-1.542 0l-1.28-1.275a1.082 1.082 0 0 1-.318-.832 1.13 1.13 0 0 1-.001-.064v-2.174z" fill-rule="nonzero"/>
        <path d="M24 18.478C24 22.08 21.07 25 17.455 25c-3.615 0-6.546-2.92-6.546-6.522 0-3.602 2.93-6.521 6.546-6.521 3.614 0 6.545 2.92 6.545 6.521zm-10.929 0a4.376 4.376 0 0 0 4.384 4.368 4.376 4.376 0 0 0 4.383-4.368 4.376 4.376 0 0 0-4.383-4.367 4.376 4.376 0 0 0-4.384 4.367z"/>
    </g>
</svg>
